# xmcd
#
# Track frame offsets: 
#        173
#        31840
#        62990
#        84935
#        114168
#        144428
#        179188
#        211075
#
# Disc length: 3204 seconds
#
# Revision: 2
# Processed by: cddbd v1.5.2PL0 Copyright (c) Steve Scherf et al.
# Submitted via: ExactAudioCopy v1.0b1
#
DISCID=670c8208
DTITLE=Rostotsky, Alex - Waltz For Ksenia
DYEAR=1993
DGENRE=Jazz
TTITLE0=Waltz For Ksenia
TTITLE1=Just September
TTITLE2=May Lovers
TTITLE3=She's Crazy About Jazz
TTITLE4=Ballad Of Sea Water
TTITLE5=The Peacocks
TTITLE6=Les Enfants
TTITLE7=Easy To Love
EXTD=
EXTT0=
EXTT1=
EXTT2=
EXTT3=
EXTT4=
EXTT5=
EXTT6=
EXTT7=
PLAYORDER=
